REM DIRINDEX 1\2,1\3,1\4
REM DIRNAME folder01,folder02,folder03,folder04
TITLE ""
FILE "066 066_TOEFL_3900.mp3" MP3
  TRACK 01 AUDIO
    TITLE "2:cjc151_2852"
    INDEX 01 00:00:00
  TRACK 02 AUDIO
    TITLE "0:"
    INDEX 01 00:01:24
  TRACK 03 AUDIO
    TITLE "3:cjc151_2853"
    INDEX 01 00:03:02
  TRACK 04 AUDIO
    TITLE "0:"
    INDEX 01 00:07:13
  TRACK 05 AUDIO
    TITLE "2:cjc151_2854"
    INDEX 01 00:08:68
  TRACK 06 AUDIO
    TITLE "0:"
    INDEX 01 00:09:61
  TRACK 07 AUDIO
    TITLE "3:cjc151_2855"
    INDEX 01 00:11:40
  TRACK 08 AUDIO
    TITLE "0:"
    INDEX 01 00:15:30
  TRACK 09 AUDIO
    TITLE "2:cjc151_2856"
    INDEX 01 00:17:25
  TRACK 10 AUDIO
    TITLE "0:"
    INDEX 01 00:18:41
  TRACK 11 AUDIO
    TITLE "3:cjc151_2857"
    INDEX 01 00:20:16
  TRACK 12 AUDIO
    TITLE "0:"
    INDEX 01 00:23:40
  TRACK 13 AUDIO
    TITLE "2:cjc151_2858"
    INDEX 01 00:25:19
  TRACK 14 AUDIO
    TITLE "0:"
    INDEX 01 00:26:20
  TRACK 15 AUDIO
    TITLE "3:cjc151_2859"
    INDEX 01 00:28:04
  TRACK 16 AUDIO
    TITLE "0:"
    INDEX 01 00:32:00
  TRACK 17 AUDIO
    TITLE "2:cjc151_2860"
    INDEX 01 00:33:52
  TRACK 18 AUDIO
    TITLE "0:"
    INDEX 01 00:34:53
  TRACK 19 AUDIO
    TITLE "3:cjc151_2861"
    INDEX 01 00:36:29
  TRACK 20 AUDIO
    TITLE "0:"
    INDEX 01 00:39:31
  TRACK 21 AUDIO
    TITLE "2:cjc151_2862"
    INDEX 01 00:41:16
  TRACK 22 AUDIO
    TITLE "0:"
    INDEX 01 00:42:27
  TRACK 23 AUDIO
    TITLE "3:cjc151_2863"
    INDEX 01 00:44:22
  TRACK 24 AUDIO
    TITLE "0:"
    INDEX 01 00:48:28
  TRACK 25 AUDIO
    TITLE "2:cjc151_2864"
    INDEX 01 00:50:07
  TRACK 26 AUDIO
    TITLE "0:"
    INDEX 01 00:51:05
  TRACK 27 AUDIO
    TITLE "3:cjc151_2865"
    INDEX 01 00:52:57
  TRACK 28 AUDIO
    TITLE "0:"
    INDEX 01 00:56:39
  TRACK 29 AUDIO
    TITLE "2:cjc151_2866"
    INDEX 01 00:58:13
  TRACK 30 AUDIO
    TITLE "0:"
    INDEX 01 00:59:28
  TRACK 31 AUDIO
    TITLE "3:cjc151_2867"
    INDEX 01 01:01:05
  TRACK 32 AUDIO
    TITLE "0:"
    INDEX 01 01:04:45
  TRACK 33 AUDIO
    TITLE "2:cjc151_2868"
    INDEX 01 01:06:24
  TRACK 34 AUDIO
    TITLE "0:"
    INDEX 01 01:07:25
  TRACK 35 AUDIO
    TITLE "3:cjc151_2869"
    INDEX 01 01:08:74
  TRACK 36 AUDIO
    TITLE "0:"
    INDEX 01 01:13:45
  TRACK 37 AUDIO
    TITLE "2:cjc151_2870"
    INDEX 01 01:15:21
  TRACK 38 AUDIO
    TITLE "0:"
    INDEX 01 01:16:40
  TRACK 39 AUDIO
    TITLE "3:cjc151_2871"
    INDEX 01 01:18:19
  TRACK 40 AUDIO
    TITLE "0:"
    INDEX 01 01:21:53
  TRACK 41 AUDIO
    TITLE "2:cjc151_2872"
    INDEX 01 01:23:30
  TRACK 42 AUDIO
    TITLE "0:"
    INDEX 01 01:24:51
  TRACK 43 AUDIO
    TITLE "3:cjc151_2873"
    INDEX 01 01:26:29
  TRACK 44 AUDIO
    TITLE "0:"
    INDEX 01 01:30:07
  TRACK 45 AUDIO
    TITLE "2:cjc151_2874"
    INDEX 01 01:31:59
  TRACK 46 AUDIO
    TITLE "0:"
    INDEX 01 01:33:13
  TRACK 47 AUDIO
    TITLE "3:cjc151_2875"
    INDEX 01 01:34:59
  TRACK 48 AUDIO
    TITLE "0:"
    INDEX 01 01:38:34
  TRACK 49 AUDIO
    TITLE "2:cjc151_2876"
    INDEX 01 01:40:19
  TRACK 50 AUDIO
    TITLE "0:"
    INDEX 01 01:41:28
  TRACK 51 AUDIO
    TITLE "3:cjc151_2877"
    INDEX 01 01:43:09
  TRACK 52 AUDIO
    TITLE "0:"
    INDEX 01 01:46:45
  TRACK 53 AUDIO
    TITLE "2:cjc151_2878"
    INDEX 01 01:48:40
  TRACK 54 AUDIO
    TITLE "0:"
    INDEX 01 01:49:61
  TRACK 55 AUDIO
    TITLE "3:cjc151_2879"
    INDEX 01 01:51:38
  TRACK 56 AUDIO
    TITLE "0:"
    INDEX 01 01:54:33
  TRACK 57 AUDIO
    TITLE "2:cjc151_2880"
    INDEX 01 01:56:30
  TRACK 58 AUDIO
    TITLE "0:"
    INDEX 01 01:57:55
  TRACK 59 AUDIO
    TITLE "3:cjc151_2881"
    INDEX 01 01:59:32
  TRACK 60 AUDIO
    TITLE "0:"
    INDEX 01 02:03:24
  TRACK 61 AUDIO
    TITLE "2:cjc151_2882"
    INDEX 01 02:05:01
  TRACK 62 AUDIO
    TITLE "0:"
    INDEX 01 02:06:05
  TRACK 63 AUDIO
    TITLE "3:cjc151_2883"
    INDEX 01 02:07:51
  TRACK 64 AUDIO
    TITLE "0:"
    INDEX 01 02:11:35
  TRACK 65 AUDIO
    TITLE "2:cjc151_2884"
    INDEX 01 02:13:14
  TRACK 66 AUDIO
    TITLE "0:"
    INDEX 01 02:14:47
  TRACK 67 AUDIO
    TITLE "3:cjc151_2885"
    INDEX 01 02:16:26
  TRACK 68 AUDIO
    TITLE "0:"
    INDEX 01 02:20:05
  TRACK 69 AUDIO
    TITLE "2:cjc151_2886"
    INDEX 01 02:21:57
  TRACK 70 AUDIO
    TITLE "0:"
    INDEX 01 02:22:45
  TRACK 71 AUDIO
    TITLE "3:cjc151_2887"
    INDEX 01 02:24:26
  TRACK 72 AUDIO
    TITLE "0:"
    INDEX 01 02:27:16
  TRACK 73 AUDIO
    TITLE "2:cjc151_2888"
    INDEX 01 02:29:08
  TRACK 74 AUDIO
    TITLE "0:"
    INDEX 01 02:29:66
  TRACK 75 AUDIO
    TITLE "3:cjc151_2889"
    INDEX 01 02:31:55
  TRACK 76 AUDIO
    TITLE "0:"
    INDEX 01 02:35:22
  TRACK 77 AUDIO
    TITLE "2:cjc151_2890"
    INDEX 01 02:37:19
  TRACK 78 AUDIO
    TITLE "0:"
    INDEX 01 02:38:14
  TRACK 79 AUDIO
    TITLE "3:cjc151_2891"
    INDEX 01 02:39:69
  TRACK 80 AUDIO
    TITLE "0:"
    INDEX 01 02:43:25
  TRACK 81 AUDIO
    TITLE "2:cjc151_2892"
    INDEX 01 02:45:09
  TRACK 82 AUDIO
    TITLE "0:"
    INDEX 01 02:46:04
  TRACK 83 AUDIO
    TITLE "3:cjc151_2893"
    INDEX 01 02:47:60
  TRACK 84 AUDIO
    TITLE "0:"
    INDEX 01 02:52:16
  TRACK 85 AUDIO
    TITLE "2:cjc151_2894"
    INDEX 01 02:53:69
  TRACK 86 AUDIO
    TITLE "0:"
    INDEX 01 02:55:01
  TRACK 87 AUDIO
    TITLE "3:cjc151_2895"
    INDEX 01 02:56:59
  TRACK 88 AUDIO
    TITLE "0:"
    INDEX 01 03:00:32
